<svg xmlns="http://www.w3.org/2000/svg" viewBox="0 0 473.67 510.76"><defs><style>.cls-1{fill:#333;}</style></defs><title>logo</title><g id="Layer_2" data-name="Layer 2"><g id="Layer_1-2" data-name="Layer 1"><path class="cls-1" d="M470.42,172.52c-4-12,9-16,0-35-10.71-10.19-22.11-9.19-34,0-6.6,20.74-8.14,36.6-4,47l-150,185-232-70c-17.27-14.85-15-51,6-58l207,60c9.28,3.51,18,5.39,24,0l183-220c5.48-10.88,2.2-18.67-8-24l-245-56c-6.1-2-11.76-2-17,0l-181,200c-25.5,40.87-22.86,79.14-5,116-18.85,36.15-22.46,71.5,9,105l256,88c9.38.67,16.56-.1,22-2l169-210c3.64-6.08,3.37-12.43,0-19-9.11-27.92-9.81-54.73,0-81C473.91,190.39,473.94,181.73,470.42,172.52ZM176.8,87.28l10.53-11.62A25.21,25.21,0,0,1,212,68.1L336.94,98.71a7.45,7.45,0,0,1,4,12l-9.41,11.5a25.21,25.21,0,0,1-25.59,8.5L180.53,99.53A7.46,7.46,0,0,1,176.8,87.28ZM282.42,468.52l-227-74c-18.9-15.31-18.21-33.8-7-54l229,70c10,3,16.87,3.4,23-3l124-153c.79,13.9,2.92,24.7,7,31Z"/></g></g></svg>